# Blender v2.81 (sub 16) OBJ File: 'mascarapperro.blend'
# www.blender.org
mtllib mascarapperro.mtl
o Plane.002_Plane.012
v 1.667052 1.618451 -10.477957
v 1.698545 1.715372 -10.756166
v 1.617657 1.838828 -10.368209
v 1.630567 2.004610 -10.645980
v 1.653880 1.315709 -10.598271
v 1.695192 1.416968 -10.809317
v 1.547905 1.119409 -10.781344
v 1.483243 1.022795 -10.606094
v 1.450014 2.048878 -10.301242
v 1.450014 1.875939 -10.226955
v 1.592848 1.642871 -10.346338
v 1.519588 1.725611 -10.302762
v 1.303021 1.662221 -10.192777
v 1.534973 1.195624 -10.435615
v 1.613166 1.458841 -10.394004
v 1.405587 2.169685 -10.547225
v 1.547905 1.188229 -10.982915
v 1.616160 1.485788 -11.010887
v 1.483243 1.242108 -11.083525
v 1.420377 1.574254 -11.188955
v 1.673039 1.747767 -10.936666
v 1.502200 1.355204 -10.257306
v 1.473963 1.803679 -11.083372
v 1.364695 1.864506 -11.133258
v 1.433299 1.141372 -10.294183
v 1.349727 1.148845 -10.226331
v 1.429557 1.014220 -10.430919
v 1.442031 1.315080 -10.145274
v 1.338501 1.195474 -10.111235
v 1.376541 1.294514 -10.040022
v 1.337254 1.220966 -10.009864
v 1.337254 1.318371 -9.931193
v 1.499409 1.602303 -10.287002
v 1.484440 1.520820 -10.241311
v 1.317920 1.625884 -10.053185
v 1.445773 1.485599 -10.087885
v 1.408352 1.493105 -9.993462
v 1.315321 1.372814 -9.888635
v 1.314636 1.591157 -9.916373
v 1.364695 1.503826 -9.934996
v 1.288607 1.446754 -9.873618
v 1.300076 1.504522 -9.827662
v 1.304823 1.558007 -9.853193
v 1.598697 2.057532 -10.746566
v 1.587720 2.011490 -10.829588
v 1.611669 1.981583 -10.938477
v 1.455610 2.160359 -10.828195
v 1.450014 2.085469 -10.944590
v 1.405587 2.173896 -10.694311
v 1.847627 1.853098 -10.792978
v 1.774283 2.020745 -10.719551
v 1.886544 2.054067 -10.805129
v 0.819505 1.618451 -10.477957
v 0.788012 1.715372 -10.756166
v 0.868900 1.838828 -10.368209
v 0.855990 2.004610 -10.645980
v 0.832677 1.315709 -10.598271
v 0.791365 1.416968 -10.809317
v 0.938652 1.119409 -10.781344
v 1.003314 1.022795 -10.606094
v 1.036543 2.048878 -10.301242
v 1.036543 1.875939 -10.226955
v 0.893708 1.642871 -10.346338
v 0.966969 1.725611 -10.302762
v 1.183536 1.662221 -10.192777
v 0.951584 1.195624 -10.435615
v 0.873390 1.458841 -10.394004
v 1.080970 2.169685 -10.547225
v 0.938652 1.188229 -10.982915
v 0.870397 1.485788 -11.010887
v 1.003314 1.242108 -11.083525
v 1.066180 1.574254 -11.188955
v 0.813518 1.747767 -10.936666
v 0.982159 1.335423 -10.257306
v 1.012594 1.803679 -11.083372
v 1.121861 1.864506 -11.133258
v 1.053257 1.141372 -10.294183
v 1.136830 1.148845 -10.226331
v 1.057000 1.014220 -10.430919
v 1.044526 1.315080 -10.145274
v 1.148056 1.195474 -10.111235
v 1.110016 1.294514 -10.040022
v 1.149303 1.220966 -10.009864
v 1.149303 1.318371 -9.931193
v 0.987148 1.602303 -10.287002
v 1.002116 1.520820 -10.241311
v 1.168637 1.625884 -10.053185
v 1.040784 1.485599 -10.087885
v 1.078204 1.493105 -9.993462
v 1.171235 1.372814 -9.888635
v 1.171920 1.591157 -9.916373
v 1.121861 1.503826 -9.934996
v 1.197949 1.446754 -9.873618
v 1.186481 1.504522 -9.827662
v 1.181734 1.558007 -9.853193
v 0.887860 2.057532 -10.746566
v 0.898836 2.011490 -10.829588
v 0.874887 1.981583 -10.938477
v 1.030947 2.160359 -10.828195
v 1.036543 2.085469 -10.944590
v 1.080970 2.173896 -10.694311
v 1.243278 2.048878 -10.301242
v 1.243278 1.875939 -10.226955
v 1.243278 1.698142 -10.192777
v 1.243278 2.169685 -10.547225
v 1.243278 1.242108 -11.083525
v 1.243278 1.574254 -11.188955
v 1.243278 1.005785 -10.408948
v 1.243278 1.133248 -10.201689
v 1.243278 1.864506 -11.133258
v 1.243278 1.174353 -10.095514
v 1.243278 1.310118 -9.914624
v 1.243278 1.633834 -10.053185
v 1.243278 1.591157 -9.916373
v 1.243278 1.198328 -9.992322
v 1.243278 1.437225 -9.856259
v 1.243278 1.359523 -9.864539
v 1.243278 1.503049 -9.827662
v 1.243278 1.558007 -9.853193
v 1.243278 2.173896 -10.694311
v 1.243278 2.085469 -10.944590
v 1.243278 2.160359 -10.828195
v 0.638930 1.853098 -10.792978
v 0.712273 2.020745 -10.719551
v 0.600012 2.054067 -10.805129
vt 0.000000 0.000000
vt 0.000000 0.000000
vt 0.000000 0.000000
vt 0.000000 0.000000
vt 0.000000 0.000000
vt 0.000000 0.000000
vt 0.000000 0.000000
vt 0.000000 0.000000
vt 0.000000 0.000000
vt 0.000000 0.000000
vt 0.000000 0.000000
vt 0.000000 0.000000
vt 0.000000 0.000000
vt 0.000000 0.000000
vt 0.000000 0.000000
vt 0.000000 0.000000
vt 0.000000 0.000000
vt 0.000000 0.000000
vt 0.000000 0.000000
vt 0.000000 0.000000
vt 0.000000 0.000000
vt 0.000000 0.000000
vt 0.000000 0.000000
vt 0.000000 0.000000
vt 0.000000 0.000000
vt 0.000000 0.000000
vt 0.000000 0.000000
vt 0.000000 0.000000
vt 0.000000 0.000000
vt 0.000000 0.000000
vt 0.000000 0.000000
vt 0.000000 0.000000
vt 0.000000 0.000000
vt 0.000000 0.000000
vt 0.000000 0.000000
vt 0.000000 0.000000
vt 0.000000 0.000000
vt 0.000000 0.000000
vt 0.000000 0.000000
vt 0.000000 0.000000
vt 0.000000 0.000000
vt 0.000000 0.000000
vt 0.000000 0.000000
vt 0.000000 0.000000
vt 0.000000 0.000000
vt 0.000000 0.000000
vt 0.000000 0.000000
vt 0.000000 0.000000
vt 0.000000 0.000000
vt 0.000000 0.000000
vt 0.000000 0.000000
vt 0.000000 0.000000
vt 0.000000 0.000000
vt 0.000000 0.000000
vt 0.000000 0.000000
vt 0.000000 0.000000
vt 0.000000 0.000000
vt 0.000000 0.000000
vt 0.000000 0.000000
vt 0.000000 0.000000
vt 0.000000 0.000000
vt 0.000000 0.000000
vt 0.000000 0.000000
vt 0.000000 0.000000
vt 0.000000 0.000000
vt 0.000000 0.000000
vt 0.000000 0.000000
vt 0.000000 0.000000
vt 0.000000 0.000000
vt 0.000000 0.000000
vt 0.000000 0.000000
vt 1.000000 0.000000
vt 1.000000 1.000000
vt 0.000000 1.000000
vt 1.000000 0.000000
vt 1.000000 0.000000
vt 1.000000 0.000000
vt 0.000000 1.000000
vt 0.000000 1.000000
vt 0.000000 1.000000
vt 1.000000 0.000000
vt 1.000000 0.000000
vt 1.000000 0.000000
vt 1.000000 0.000000
vt 1.000000 0.000000
vt 1.000000 0.000000
vt 1.000000 0.000000
vt 1.000000 1.000000
vt 1.000000 1.000000
vt 1.000000 0.000000
vt 1.000000 0.000000
vt 1.000000 1.000000
vt 1.000000 1.000000
vt 1.000000 0.000000
vt 1.000000 0.000000
vt 1.000000 1.000000
vt 1.000000 1.000000
vt 1.000000 1.000000
vt 1.000000 1.000000
vt 1.000000 1.000000
vt 1.000000 1.000000
vt 1.000000 0.000000
vt 1.000000 0.000000
vt 0.000000 1.000000
vt 0.000000 1.000000
vt 1.000000 0.000000
vt 0.000000 1.000000
vt 1.000000 0.000000
vt 1.000000 0.000000
vt 1.000000 0.000000
vt 0.000000 1.000000
vt 1.000000 1.000000
vt 1.000000 0.000000
vt 1.000000 0.000000
vt 1.000000 0.000000
vt 1.000000 0.000000
vt 0.000000 1.000000
vt 0.000000 1.000000
vt 0.000000 1.000000
vt 1.000000 0.000000
vt 1.000000 0.000000
vt 1.000000 0.000000
vt 1.000000 0.000000
vt 1.000000 0.000000
vt 1.000000 0.000000
vt 1.000000 0.000000
vt 1.000000 1.000000
vt 1.000000 0.000000
vt 1.000000 1.000000
vt 1.000000 0.000000
vt 1.000000 1.000000
vt 1.000000 1.000000
vt 1.000000 0.000000
vt 1.000000 0.000000
vt 1.000000 1.000000
vt 1.000000 1.000000
vt 1.000000 1.000000
vt 1.000000 0.000000
vn 0.4897 -0.2012 0.8484
vn 0.8618 -0.3184 0.3949
vn 0.9406 -0.1600 0.2996
vn 0.8346 -0.4928 0.2463
vn 0.8396 -0.3189 0.4397
vn 0.8201 -0.3432 0.4579
vn 0.8251 -0.4714 0.3113
vn 0.4335 -0.6658 0.6073
vn 0.4790 -0.5851 0.6544
vn 0.8736 -0.3413 0.3469
vn 0.7581 -0.5622 0.3304
vn 0.8952 -0.4294 0.1190
vn 0.8711 -0.3086 0.3821
vn 0.8681 -0.0325 0.4954
vn 0.5745 -0.1452 0.8055
vn 0.7871 0.1853 0.5883
vn 0.7685 0.0206 0.6395
vn 0.4903 0.3560 0.7955
vn 0.6311 0.7645 0.1316
vn 0.7380 0.5929 0.3221
vn 0.9623 0.0780 0.2604
vn 0.8924 -0.1614 0.4214
vn 0.8502 -0.1846 0.4930
vn 0.8978 -0.2314 0.3748
vn 0.8978 -0.2320 0.3743
vn 0.8085 -0.1240 0.5753
vn 0.7459 0.6188 0.2464
vn 0.7763 0.6063 0.1725
vn 0.7829 0.3373 0.5227
vn 0.7910 -0.0837 0.6060
vn 0.6014 0.0554 0.7970
vn 0.0221 0.1639 0.9862
vn 0.0523 0.9608 0.2724
vn 0.3461 -0.0826 0.9345
vn 0.2573 -0.9389 0.2286
vn 0.1551 -0.8196 0.5516
vn 0.2374 -0.8988 0.3684
vn 0.2622 -0.6110 0.7470
vn 0.2368 -0.5817 0.7782
vn 0.2950 0.9038 0.3101
vn -0.4897 -0.2012 0.8484
vn -0.8618 -0.3184 0.3949
vn -0.9406 -0.1600 0.2996
vn -0.8346 -0.4928 0.2463
vn -0.8607 -0.3185 0.3973
vn -0.8137 -0.3815 0.4386
vn -0.8251 -0.4714 0.3113
vn -0.4335 -0.6658 0.6073
vn -0.4790 -0.5851 0.6544
vn -0.8354 -0.3813 0.3958
vn -0.7581 -0.5622 0.3304
vn -0.8952 -0.4294 0.1190
vn -0.8711 -0.3086 0.3821
vn -0.8681 -0.0325 0.4954
vn -0.5745 -0.1452 0.8055
vn -0.7871 0.1853 0.5883
vn -0.7698 0.0279 0.6377
vn -0.4903 0.3560 0.7955
vn -0.6311 0.7645 0.1316
vn -0.7380 0.5929 0.3221
vn -0.9619 0.0810 0.2610
vn -0.8736 -0.1723 0.4550
vn -0.8502 -0.1846 0.4930
vn -0.8978 -0.2314 0.3748
vn -0.8978 -0.2320 0.3743
vn -0.8085 -0.1240 0.5753
vn -0.7459 0.6188 0.2464
vn -0.7763 0.6063 0.1725
vn -0.7829 0.3373 0.5227
vn -0.7910 -0.0837 0.6060
vn -0.6014 0.0554 0.7970
vn -0.0221 0.1639 0.9862
vn -0.0523 0.9608 0.2724
vn -0.3461 -0.0826 0.9345
vn -0.2573 -0.9389 0.2286
vn -0.1551 -0.8196 0.5516
vn -0.2374 -0.8988 0.3684
vn -0.2623 -0.6110 0.7470
vn -0.2368 -0.5817 0.7782
vn -0.2950 0.9038 0.3101
vn 0.7389 -0.5032 0.4481
vn 0.8451 0.1674 0.5077
vn 0.8439 0.4099 0.3462
vn 0.1973 -0.5197 0.8312
vn -0.0053 0.4262 0.9046
vn 0.0000 0.8855 0.4646
vn -0.7389 -0.5032 0.4481
vn -0.8451 0.1674 0.5077
vn -0.8439 0.4099 0.3462
vn -0.1972 -0.5197 0.8312
vn 0.0053 0.4262 0.9046
vn 0.9754 0.1587 0.1529
vn 0.9906 -0.0625 0.1221
vn 0.8941 -0.4462 -0.0391
vn 0.8629 -0.5038 0.0407
vn 0.7842 0.5161 0.3445
vn 0.6527 0.2990 0.6961
vn 0.8655 -0.0540 0.4980
vn 0.5332 0.0269 0.8455
vn 0.6284 -0.0983 0.7716
vn 0.6408 0.7285 0.2421
vn 0.8896 -0.3498 -0.2938
vn 0.6801 -0.1575 -0.7160
vn 0.9609 -0.0411 -0.2738
vn 0.6570 0.1244 -0.7435
vn 0.5157 0.2558 -0.8177
vn -0.1122 0.9516 -0.2860
vn 0.6313 -0.7429 -0.2225
vn 0.1208 0.8938 0.4320
vn -0.0038 0.9970 -0.0775
vn 0.6139 0.1551 -0.7740
vn 0.4254 0.4287 -0.7970
vn 0.4844 0.7249 -0.4897
vn 0.5822 0.8054 0.1109
vn 0.3491 0.7992 -0.4893
vn 0.7325 0.6481 0.2082
vn 0.7477 0.6638 -0.0178
vn 0.0000 0.9949 -0.1006
vn 0.0000 0.9996 0.0286
vn 0.0000 0.1885 -0.9821
vn 0.0000 0.3947 0.9188
vn 0.0000 0.6493 -0.7605
vn 0.0000 0.8976 0.4408
vn 0.0000 0.8410 -0.5411
vn 0.0000 -0.3025 -0.9531
vn 0.5248 -0.0002 -0.8512
vn -0.9754 0.1587 0.1529
vn -0.9906 -0.0625 0.1221
vn -0.8941 -0.4462 -0.0391
vn -0.8629 -0.5038 0.0407
vn -0.7842 0.5161 0.3445
vn -0.6527 0.2990 0.6961
vn -0.8655 -0.0540 0.4980
vn -0.5332 0.0269 0.8455
vn -0.6284 -0.0983 0.7716
vn -0.6408 0.7285 0.2421
vn -0.8896 -0.3498 -0.2938
vn -0.6801 -0.1575 -0.7160
vn -0.9609 -0.0411 -0.2738
vn -0.6570 0.1244 -0.7435
vn -0.5157 0.2558 -0.8177
vn 0.1122 0.9516 -0.2860
vn -0.6313 -0.7429 -0.2225
vn -0.1208 0.8938 0.4320
vn 0.0038 0.9970 -0.0775
vn -0.6139 0.1551 -0.7740
vn -0.4254 0.4287 -0.7970
vn -0.4844 0.7249 -0.4897
vn -0.5822 0.8054 0.1109
vn -0.3491 0.7992 -0.4893
vn -0.7325 0.6481 0.2082
vn -0.7477 0.6637 -0.0178
vn -0.5248 -0.0002 -0.8512
usemtl Material.001
s off
f 12/1/1 10/2/1 13/3/1
f 5/4/2 15/5/2 14/6/2
f 5/4/3 1/7/3 15/5/3
f 5/4/4 14/6/4 8/8/4
f 14/6/5 15/5/5 22/9/5
f 14/6/6 22/9/6 25/10/6
f 14/6/7 25/10/7 27/11/7 8/8/7
f 27/11/8 25/10/8 26/12/8
f 26/12/9 25/10/9 28/13/9
f 28/13/10 25/10/10 22/9/10
f 26/12/11 28/13/11 30/14/11 29/15/11
f 29/15/12 30/14/12 31/16/12
f 31/16/13 30/14/13 32/17/13
f 1/7/14 11/18/14 15/5/14
f 15/5/15 11/18/15 33/19/15
f 15/5/16 33/19/16 34/20/16
f 15/5/17 34/20/17 22/9/17
f 33/19/18 13/3/18 34/20/18
f 34/20/19 13/3/19 35/21/19
f 34/20/20 35/21/20 36/22/20
f 34/20/21 36/22/21 22/9/21
f 22/9/22 36/22/22 28/13/22
f 28/13/23 36/22/23 30/14/23
f 30/14/24 36/22/24 32/17/24
f 32/17/25 36/22/25 37/23/25
f 32/17/26 37/23/26 38/24/26
f 36/22/27 35/21/27 37/23/27
f 37/23/28 35/21/28 39/25/28
f 37/23/29 39/25/29 40/26/29
f 37/23/30 40/26/30 38/24/30
f 38/24/31 40/26/31 41/27/31
f 10/2/32 103/28/32 104/29/32 13/3/32
f 35/21/33 113/30/33 114/31/33 39/25/33
f 41/27/34 116/32/34 117/33/34 38/24/34
f 31/16/35 115/34/35 111/35/35 29/15/35
f 26/12/36 109/36/36 108/37/36 27/11/36
f 29/15/37 111/35/37 109/36/37 26/12/37
f 38/24/38 117/33/38 112/38/38 32/17/38
f 32/17/39 112/38/39 115/34/39 31/16/39
f 13/3/40 104/29/40 113/30/40 35/21/40
f 64/39/41 65/40/41 62/41/41
f 57/42/42 66/43/42 67/44/42
f 57/42/43 67/44/43 53/45/43
f 57/42/44 60/46/44 66/43/44
f 66/43/45 74/47/45 67/44/45
f 66/43/46 77/48/46 74/47/46
f 66/43/47 60/46/47 79/49/47 77/48/47
f 79/49/48 78/50/48 77/48/48
f 78/50/49 80/51/49 77/48/49
f 80/51/50 74/47/50 77/48/50
f 78/50/51 81/52/51 82/53/51 80/51/51
f 81/52/52 83/54/52 82/53/52
f 83/54/53 84/55/53 82/53/53
f 53/45/54 67/44/54 63/56/54
f 67/44/55 85/57/55 63/56/55
f 67/44/56 86/58/56 85/57/56
f 67/44/57 74/47/57 86/58/57
f 85/57/58 86/58/58 65/40/58
f 86/58/59 87/59/59 65/40/59
f 86/58/60 88/60/60 87/59/60
f 86/58/61 74/47/61 88/60/61
f 74/47/62 80/51/62 88/60/62
f 80/51/63 82/53/63 88/60/63
f 82/53/64 84/55/64 88/60/64
f 84/55/65 89/61/65 88/60/65
f 84/55/66 90/62/66 89/61/66
f 88/60/67 89/61/67 87/59/67
f 89/61/68 91/63/68 87/59/68
f 89/61/69 92/64/69 91/63/69
f 89/61/70 90/62/70 92/64/70
f 90/62/71 93/65/71 92/64/71
f 62/41/72 65/40/72 104/29/72 103/28/72
f 87/59/73 91/63/73 114/31/73 113/30/73
f 93/65/74 90/62/74 117/33/74 116/32/74
f 83/54/75 81/52/75 111/35/75 115/34/75
f 78/50/76 79/49/76 108/37/76 109/36/76
f 81/52/77 78/50/77 109/36/77 111/35/77
f 90/62/78 84/55/78 112/38/78 117/33/78
f 84/55/79 83/54/79 115/34/79 112/38/79
f 65/40/80 87/59/80 113/30/80 104/29/80
usemtl Material.002
f 41/27/81 40/26/81 42/66/81
f 42/66/82 40/26/82 43/67/82
f 43/67/83 40/26/83 39/25/83
f 42/66/84 118/68/84 116/32/84 41/27/84
f 43/67/85 119/69/85 118/68/85 42/66/85
f 39/25/86 114/31/86 119/69/86 43/67/86
f 93/65/87 94/70/87 92/64/87
f 94/70/88 95/71/88 92/64/88
f 95/71/89 91/63/89 92/64/89
f 94/70/90 93/65/90 116/32/90 118/68/90
f 95/71/91 94/70/91 118/68/91 119/69/91
f 91/63/86 95/71/86 119/69/86 114/31/86
usemtl Material.003
f 1/7/92 2/72/92 4/73/92 3/74/92
f 2/72/93 1/7/93 5/4/93 6/75/93
f 6/75/94 5/4/94 7/76/94
f 7/76/95 5/4/95 8/77/95
f 3/74/96 4/73/96 9/78/96
f 3/74/97 9/78/97 10/79/97
f 1/7/98 3/74/98 11/18/98
f 11/18/99 3/74/99 12/1/99
f 12/1/100 3/74/100 10/2/100
f 9/78/101 4/73/101 16/80/101
f 6/75/102 7/76/102 17/81/102 18/82/102
f 18/82/103 17/81/103 19/83/103 20/84/103
f 2/72/104 6/75/104 18/82/104 21/85/104
f 21/85/105 18/82/105 20/84/105 23/86/105
f 23/86/106 20/84/106 24/87/106
f 45/88/107 52/89/107 46/90/107
f 21/85/108 50/91/108 2/72/108
f 4/73/109 51/92/109 44/93/109
f 44/93/110 51/92/110 52/89/110 45/88/110
f 46/90/111 21/85/111 23/86/111
f 46/90/112 23/86/112 24/87/112 48/94/112
f 46/90/113 48/94/113 47/95/113
f 4/73/114 44/93/114 49/96/114 16/97/114
f 49/96/115 44/93/115 45/88/115
f 49/96/116 45/88/116 47/98/116
f 46/90/117 47/95/117 45/88/117
f 47/98/118 122/99/118 120/100/118 49/96/118
f 49/96/119 120/100/119 105/101/119 16/97/119
f 20/84/120 107/102/120 110/103/120 24/87/120
f 9/78/121 102/104/121 103/105/121 10/79/121
f 24/87/122 110/103/122 121/106/122 48/94/122
f 16/80/123 105/107/123 102/104/123 9/78/123
f 48/94/124 121/106/124 122/108/124 47/95/124
f 19/83/125 106/109/125 107/102/125 20/84/125
f 46/90/126 52/110/126 50/91/126 21/85/126
f 53/45/127 55/111/127 56/112/127 54/113/127
f 54/113/128 58/114/128 57/42/128 53/45/128
f 58/114/129 59/115/129 57/42/129
f 59/115/130 60/116/130 57/42/130
f 55/111/131 61/117/131 56/112/131
f 55/111/132 62/118/132 61/117/132
f 53/45/133 63/56/133 55/111/133
f 63/56/134 64/39/134 55/111/134
f 64/39/135 62/41/135 55/111/135
f 61/117/136 68/119/136 56/112/136
f 58/114/137 70/120/137 69/121/137 59/115/137
f 70/120/138 72/122/138 71/123/138 69/121/138
f 54/113/139 73/124/139 70/120/139 58/114/139
f 73/124/140 75/125/140 72/122/140 70/120/140
f 75/125/141 76/126/141 72/122/141
f 97/127/142 98/128/142 125/129/142
f 73/124/143 54/113/143 123/130/143
f 56/112/144 96/131/144 124/132/144
f 96/131/145 97/127/145 125/129/145 124/132/145
f 98/128/146 75/125/146 73/124/146
f 98/128/147 100/133/147 76/126/147 75/125/147
f 98/128/148 99/134/148 100/133/148
f 56/112/149 68/135/149 101/136/149 96/131/149
f 101/136/150 97/127/150 96/131/150
f 101/136/151 99/137/151 97/127/151
f 98/128/152 97/127/152 99/134/152
f 99/137/118 101/136/118 120/100/118 122/99/118
f 101/136/119 68/135/119 105/101/119 120/100/119
f 72/122/120 76/126/120 110/103/120 107/102/120
f 61/117/121 62/118/121 103/105/121 102/104/121
f 76/126/122 100/133/122 121/106/122 110/103/122
f 68/119/123 61/117/123 102/104/123 105/107/123
f 100/133/124 99/134/124 122/108/124 121/106/124
f 71/123/125 72/122/125 107/102/125 106/109/125
f 98/128/153 73/124/153 123/130/153 125/138/153
